<svg width="300" height="300" viewBox="0 0 300 300" fill="none" xmlns="http://www.w3.org/2000/svg">
  <path fill-rule="evenodd" clip-rule="evenodd" d="M150 300C232.843 300 300 232.843 300 150C300 67.1573 232.843 0 150 0C67.1573 0 0 67.1573 0 150C0 232.843 67.1573 300 150 300ZM150 270C216.274 270 270 216.274 270 150C270 83.7258 216.274 30 150 30C83.7258 30 30 83.7258 30 150C30 216.274 83.7258 270 150 270Z" fill="#12FF80"/>
  <path d="M89.7712 89.7712C121.613 57.9298 178.387 57.9298 210.229 89.7712C242.07 121.613 242.07 178.387 210.229 210.229C178.387 242.07 121.613 242.07 89.7712 210.229C57.9298 178.387 57.9298 121.613 89.7712 89.7712ZM150 90C117.909 90 92 115.909 92 148C92 180.091 117.909 206 150 206C182.091 206 208 180.091 208 148C208 115.909 182.091 90 150 90Z" fill="#12FF80"/>
</svg> 