<svg width="24" height="24" viewBox="0 0 24 24" fill="none" xmlns="http://www.w3.org/2000/svg">
  <path d="M19 7H5C3.89543 7 3 7.89543 3 9V17C3 18.1046 3.89543 19 5 19H19C20.1046 19 21 18.1046 21 17V9C21 7.89543 20.1046 7 19 7Z" stroke="currentColor" stroke-width="2" stroke-linecap="round" stroke-linejoin="round"/>
  <path d="M16 14C16.5523 14 17 13.5523 17 13C17 12.4477 16.5523 12 16 12C15.4477 12 15 12.4477 15 13C15 13.5523 15.4477 14 16 14Z" fill="currentColor"/>
  <path d="M3 10L21 10" stroke="currentColor" stroke-width="2" stroke-linecap="round" stroke-linejoin="round"/>
  <path d="M7 14L9 16L13 12" stroke="currentColor" stroke-width="2" stroke-linecap="round" stroke-linejoin="round"/>
</svg> 